ffmpeg started on 2016-12-03 at 01:42:48
Report written to "Output/x264/results/ffmpeg/old_town_cross_2160p50placebo1500k.log"
Command line:
Tools/ffmpeg/ffmpeg -benchmark -y -i Input/y4m/old_town_cross_2160p50.y4m -c:v libx264 -preset placebo -b:v 1500k -an Output/x264/encoded/old_town_cross_2160p50placebo1500k.mkv
ffmpeg version N-82227-gdb23fde Copyright (c) 2000-2016 the FFmpeg developers
  built with gcc 5.4.0 (Ubuntu 5.4.0-6ubuntu1~16.04.2) 20160609
  configuration: --prefix=/home/jaroslav/ffmpeg_build --pkg-config-flags=--static --extra-cflags=-I/home/jaroslav/ffmpeg_build/include --extra-ldflags=-L/home/jaroslav/ffmpeg_build/lib --bindir=/home/jaroslav/bin --enable-gpl --enable-libass --enable-libfdk-aac --enable-libfreetype --enable-libmp3lame --enable-libopus --enable-libtheora --enable-libvorbis --enable-libvpx --enable-libx264 --enable-libx265 --enable-nvenc --enable-libmfx --enable-libxvid --enable-libgsm --enable-libopencore-amrnb --enable-version3 --enable-nonfree
  libavutil      55. 35.100 / 55. 35.100
  libavcodec     57. 66.101 / 57. 66.101
  libavformat    57. 57.100 / 57. 57.100
  libavdevice    57.  2.100 / 57.  2.100
  libavfilter     6. 66.100 /  6. 66.100
  libswscale      4.  3.100 /  4.  3.100
  libswresample   2.  4.100 /  2.  4.100
  libpostproc    54.  2.100 / 54.  2.100
Input #0, yuv4mpegpipe, from 'Input/y4m/old_town_cross_2160p50.y4m':
  Duration: 00:00:10.00, start: 0.000000, bitrate: 4976642 kb/s
    Stream #0:0: Video: rawvideo (I420 / 0x30323449), yuv420p(progressive), 3840x2160, SAR 1:1 DAR 16:9, 50 fps, 50 tbr, 50 tbn, 50 tbc
[libx264 @ 0x3620120] using SAR=1/1
[libx264 @ 0x3620120] DPB size (16 frames, 518400 mbs) > level limit (5 frames, 184320 mbs)
[libx264 @ 0x3620120] using cpu capabilities: MMX2 SSE2Fast SSSE3 SSE4.2 AVX FMA3 AVX2 LZCNT BMI2
[libx264 @ 0x3620120] profile High, level 5.2
[libx264 @ 0x3620120] 264 - core 148 - H.264/MPEG-4 AVC codec - Copyleft 2003-2016 - http://www.videolan.org/x264.html - options: cabac=1 ref=16 deblock=1:0:0 analyse=0x3:0x133 me=tesa subme=11 psy=1 psy_rd=1.00:0.00 mixed_ref=1 me_range=24 chroma_me=1 trellis=2 8x8dct=1 cqm=0 deadzone=21,11 fast_pskip=0 chroma_qp_offset=-2 threads=6 lookahead_threads=1 sliced_threads=0 nr=0 decimate=1 interlaced=0 bluray_compat=0 constrained_intra=0 bframes=16 b_pyramid=2 b_adapt=2 b_bias=0 direct=3 weightb=1 open_gop=0 weightp=2 keyint=250 keyint_min=25 scenecut=40 intra_refresh=0 rc_lookahead=60 rc=abr mbtree=1 bitrate=1500 ratetol=1.0 qcomp=0.60 qpmin=0 qpmax=69 qpstep=4 ip_ratio=1.40 aq=1:1.00
Output #0, matroska, to 'Output/x264/encoded/old_town_cross_2160p50placebo1500k.mkv':
  Metadata:
    encoder         : Lavf57.57.100
    Stream #0:0: Video: h264 (libx264) (H264 / 0x34363248), yuv420p, 3840x2160 [SAR 1:1 DAR 16:9], q=-1--1, 1500 kb/s, 50 fps, 1k tbn, 50 tbc
    Metadata:
      encoder         : Lavc57.66.101 libx264
    Side data:
      cpb: bitrate max/min/avg: 0/0/1500000 buffer size: 0 vbv_delay: -1
Stream mapping:
  Stream #0:0 -> #0:0 (rawvideo (native) -> h264 (libx264))
Press [q] to stop, [?] for help
frame=   58 fps=0.0 q=0.0 size=       0kB time=00:00:00.00 bitrate=N/A speed=   0x    frame=   84 fps=3.3 q=0.0 size=       0kB time=00:00:00.00 bitrate=N/A speed=   0x    frame=   89 fps=3.4 q=50.0 size=       1kB time=-00:00:00.01 bitrate=N/A speed=N/A    frame=   91 fps=3.2 q=50.0 size=       1kB time=00:00:00.02 bitrate= 280.4kbits/s speed=0.000749x    frame=   95 fps=3.3 q=50.0 size=       1kB time=00:00:00.10 bitrate=  58.3kbits/s speed=0.00352x    frame=   96 fps=3.3 q=50.0 size=       1kB time=00:00:00.12 bitrate=  48.7kbits/s speed=0.0041x    frame=   97 fps=3.2 q=50.0 size=       1kB time=00:00:00.14 bitrate=  41.8kbits/s speed=0.00458x    frame=   99 fps=2.5 q=54.0 size=       1kB time=00:00:00.18 bitrate=  32.5kbits/s speed=0.00461x    frame=  104 fps=2.5 q=55.0 size=       1kB time=00:00:00.28 bitrate=  21.0kbits/s speed=0.0068x    frame=  105 fps=2.5 q=56.0 size=       1kB time=00:00:00.30 bitrate=  19.6kbits/s speed=0.00711x    frame=  106 fps=2.5 q=56.0 size=       1kB time=00:00:00.32 bitrate=  18.3kbits/s speed=0.00749x    frame=  109 fps=2.2 q=57.0 size=       1kB time=00:00:00.38 bitrate=  15.5kbits/s speed=0.0078x    frame=  114 fps=2.2 q=57.0 size=       1kB time=00:00:00.48 bitrate=  12.2kbits/s speed=0.00928x    frame=  115 fps=2.2 q=57.0 size=       1kB time=00:00:00.50 bitrate=  11.8kbits/s speed=0.00944x    frame=  117 fps=2.2 q=57.0 size=       1kB time=00:00:00.54 bitrate=  10.9kbits/s speed=0.0101x    frame=  120 fps=2.1 q=57.0 size=       1kB time=00:00:00.60 bitrate=   9.8kbits/s speed=0.0107x    frame=  121 fps=2.1 q=56.0 size=       1kB time=00:00:00.62 bitrate=   9.5kbits/s speed=0.0107x    frame=  123 fps=2.0 q=56.0 size=       1kB time=00:00:00.66 bitrate=   8.9kbits/s speed=0.0107x    frame=  128 fps=1.9 q=56.0 size=       1kB time=00:00:00.76 bitrate=   7.7kbits/s speed=0.0116x    frame=  129 fps=1.9 q=56.0 size=       1kB time=00:00:00.78 bitrate=   7.5kbits/s speed=0.0117x    frame=  130 fps=1.9 q=55.0 size=       1kB time=00:00:00.80 bitrate=   7.4kbits/s speed=0.0119x    frame=  134 fps=1.9 q=55.0 size=       1kB time=00:00:00.88 bitrate=   6.7kbits/s speed=0.0124x    frame=  135 fps=1.9 q=55.0 size=       1kB time=00:00:00.90 bitrate=   6.5kbits/s speed=0.0124x    frame=  140 fps=1.8 q=55.0 size=       1kB time=00:00:01.00 bitrate=   5.9kbits/s speed=0.013x    frame=  141 fps=1.8 q=55.0 size=       1kB time=00:00:01.02 bitrate=   5.8kbits/s speed=0.013x    frame=  142 fps=1.8 q=55.0 size=       1kB time=00:00:01.04 bitrate=   5.7kbits/s speed=0.0131x    frame=  145 fps=1.8 q=54.0 size=       1kB time=00:00:01.10 bitrate=   5.3kbits/s speed=0.0134x    frame=  147 fps=1.8 q=54.0 size=       1kB time=00:00:01.14 bitrate=   5.2kbits/s speed=0.0137x    frame=  150 fps=1.7 q=54.0 size=       1kB time=00:00:01.20 bitrate=   4.9kbits/s speed=0.0136x    frame=  151 fps=1.7 q=54.0 size=       1kB time=00:00:01.22 bitrate=   4.8kbits/s speed=0.0137x    frame=  152 fps=1.7 q=54.0 size=       1kB time=00:00:01.24 bitrate=   4.7kbits/s speed=0.0138x    frame=  155 fps=1.7 q=54.0 size=       1kB time=00:00:01.30 bitrate=   4.5kbits/s speed=0.0142x    frame=  156 fps=1.6 q=54.0 size=       1kB time=00:00:01.32 bitrate=   4.5kbits/s speed=0.0139x    frame=  158 fps=1.6 q=54.0 size=       1kB time=00:00:01.36 bitrate=   4.3kbits/s speed=0.0142x    frame=  160 fps=1.6 q=54.0 size=       1kB time=00:00:01.40 bitrate=   4.2kbits/s speed=0.014x    frame=  161 fps=1.6 q=54.0 size=       1kB time=00:00:01.42 bitrate=   4.1kbits/s speed=0.014x    frame=  162 fps=1.6 q=54.0 size=       1kB time=00:00:01.44 bitrate=   4.1kbits/s speed=0.0141x    frame=  163 fps=1.6 q=54.0 size=       1kB time=00:00:01.46 bitrate=   4.0kbits/s speed=0.0142x    frame=  164 fps=1.6 q=54.0 size=       1kB time=00:00:01.48 bitrate=   4.0kbits/s speed=0.0142x    frame=  166 fps=1.5 q=54.0 size=       1kB time=00:00:01.52 bitrate=   3.9kbits/s speed=0.0141x    frame=  168 fps=1.5 q=54.0 size=       1kB time=00:00:01.56 bitrate=   3.8kbits/s speed=0.0142x    frame=  170 fps=1.5 q=54.0 size=       1kB time=00:00:01.60 bitrate=   3.7kbits/s speed=0.0141x    frame=  171 fps=1.5 q=54.0 size=       1kB time=00:00:01.62 bitrate=   3.6kbits/s speed=0.0141x    frame=  172 fps=1.5 q=54.0 size=       1kB time=00:00:01.64 bitrate=   3.6kbits/s speed=0.0142x    frame=  174 fps=1.5 q=54.0 size=       1kB time=00:00:01.68 bitrate=   3.5kbits/s speed=0.0143x    frame=  176 fps=1.5 q=54.0 size=       1kB time=00:00:01.72 bitrate=   3.4kbits/s speed=0.0142x    frame=  177 fps=1.4 q=54.0 size=       1kB time=00:00:01.74 bitrate=   3.4kbits/s speed=0.0142x    frame=  178 fps=1.4 q=54.0 size=       1kB time=00:00:01.76 bitrate=   3.3kbits/s speed=0.0143x    frame=  180 fps=1.4 q=54.0 size=       1kB time=00:00:01.80 bitrate=   3.3kbits/s speed=0.0144x    frame=  181 fps=1.4 q=54.0 size=       1kB time=00:00:01.82 bitrate=   3.2kbits/s speed=0.0142x    frame=  182 fps=1.4 q=54.0 size=       1kB time=00:00:01.84 bitrate=   3.2kbits/s speed=0.0142x    frame=  183 fps=1.4 q=54.0 size=       1kB time=00:00:01.86 bitrate=   3.2kbits/s speed=0.0142x    frame=  186 fps=1.4 q=54.0 size=       1kB time=00:00:01.92 bitrate=   3.1kbits/s speed=0.0145x    frame=  187 fps=1.4 q=54.0 size=       1kB time=00:00:01.94 bitrate=   3.0kbits/s speed=0.0143x    frame=  188 fps=1.4 q=54.0 size=       1kB time=00:00:01.96 bitrate=   3.0kbits/s speed=0.0142x    frame=  189 fps=1.4 q=54.0 size=       1kB time=00:00:01.98 bitrate=   3.0kbits/s speed=0.0143x    frame=  192 fps=1.3 q=54.0 size=       1kB time=00:00:02.04 bitrate=   2.9kbits/s speed=0.0143x    frame=  193 fps=1.3 q=54.0 size=       1kB time=00:00:02.06 bitrate=   2.9kbits/s speed=0.0144x    frame=  194 fps=1.3 q=54.0 size=       1kB time=00:00:02.08 bitrate=   2.8kbits/s speed=0.0144x    frame=  196 fps=1.3 q=54.0 size=       1kB time=00:00:02.12 bitrate=   2.8kbits/s speed=0.0146x    frame=  198 fps=1.3 q=54.0 size=       1kB time=00:00:02.16 bitrate=   2.7kbits/s speed=0.0146x    frame=  199 fps=1.3 q=54.0 size=       1kB time=00:00:02.18 bitrate=   2.7kbits/s speed=0.0145x    frame=  200 fps=1.3 q=54.0 size=       1kB time=00:00:02.20 bitrate=   2.7kbits/s speed=0.0146x    frame=  201 fps=1.3 q=54.0 size=       1kB time=00:00:02.22 bitrate=   2.7kbits/s speed=0.0146x    frame=  202 fps=1.3 q=54.0 size=       1kB time=00:00:02.24 bitrate=   2.6kbits/s speed=0.0147x    frame=  203 fps=1.3 q=54.0 size=       1kB time=00:00:02.26 bitrate=   2.6kbits/s speed=0.0147x    frame=  204 fps=1.3 q=53.0 size=       1kB time=00:00:02.28 bitrate=   2.6kbits/s speed=0.0146x    frame=  205 fps=1.3 q=54.0 size=       1kB time=00:00:02.30 bitrate=   2.6kbits/s speed=0.0146x    frame=  206 fps=1.3 q=54.0 size=       1kB time=00:00:02.32 bitrate=   2.5kbits/s speed=0.0147x    frame=  208 fps=1.3 q=54.0 size=       1kB time=00:00:02.36 bitrate=   2.5kbits/s speed=0.0148x    frame=  209 fps=1.3 q=54.0 size=       1kB time=00:00:02.38 bitrate=   2.5kbits/s speed=0.0149x    frame=  210 fps=1.3 q=54.0 size=       1kB time=00:00:02.40 bitrate=   2.5kbits/s speed=0.0146x    frame=  211 fps=1.3 q=53.0 size=       1kB time=00:00:02.42 bitrate=   2.4kbits/s speed=0.0147x    frame=  212 fps=1.3 q=53.0 size=       1kB time=00:00:02.44 bitrate=   2.4kbits/s speed=0.0147x    frame=  216 fps=1.3 q=53.0 size=       1kB time=00:00:02.52 bitrate=   2.3kbits/s speed=0.0147x    frame=  217 fps=1.3 q=53.0 size=       1kB time=00:00:02.54 bitrate=   2.3kbits/s speed=0.0148x    frame=  218 fps=1.3 q=53.0 size=       1kB time=00:00:02.56 bitrate=   2.3kbits/s speed=0.0148x    frame=  221 fps=1.3 q=53.0 size=       1kB time=00:00:02.62 bitrate=   2.2kbits/s speed=0.0149x    frame=  222 fps=1.2 q=53.0 size=       1kB time=00:00:02.64 bitrate=   2.2kbits/s speed=0.0147x    frame=  223 fps=1.2 q=53.0 size=       1kB time=00:00:02.66 bitrate=   2.2kbits/s speed=0.0148x    frame=  225 fps=1.2 q=53.0 size=       1kB time=00:00:02.70 bitrate=   2.2kbits/s speed=0.015x    frame=  227 fps=1.2 q=53.0 size=       1kB time=00:00:02.74 bitrate=   2.1kbits/s speed=0.015x    frame=  228 fps=1.2 q=53.0 size=       1kB time=00:00:02.76 bitrate=   2.1kbits/s speed=0.0149x    frame=  229 fps=1.2 q=53.0 size=       1kB time=00:00:02.78 bitrate=   2.1kbits/s speed=0.0149x    frame=  232 fps=1.2 q=53.0 size=       1kB time=00:00:02.84 bitrate=   2.1kbits/s speed=0.0151x    frame=  233 fps=1.2 q=53.0 size=       1kB time=00:00:02.86 bitrate=   2.1kbits/s speed=0.015x    frame=  234 fps=1.2 q=53.0 size=       1kB time=00:00:02.88 bitrate=   2.0kbits/s speed=0.015x    frame=  235 fps=1.2 q=53.0 size=       1kB time=00:00:02.90 bitrate=   2.0kbits/s speed=0.015x    frame=  236 fps=1.2 q=53.0 size=       1kB time=00:00:02.92 bitrate=   2.0kbits/s speed=0.015x    frame=  238 fps=1.2 q=53.0 size=       1kB time=00:00:02.96 bitrate=   2.0kbits/s speed=0.0152x    frame=  239 fps=1.2 q=53.0 size=       1kB time=00:00:02.98 bitrate=   2.0kbits/s speed=0.0151x    frame=  240 fps=1.2 q=53.0 size=       1kB time=00:00:03.00 bitrate=   2.0kbits/s speed=0.0149x    frame=  241 fps=1.2 q=53.0 size=       1kB time=00:00:03.02 bitrate=   1.9kbits/s speed=0.0149x    frame=  242 fps=1.2 q=53.0 size=       1kB time=00:00:03.04 bitrate=   1.9kbits/s speed=0.015x    frame=  245 fps=1.2 q=53.0 size=       1kB time=00:00:03.10 bitrate=   1.9kbits/s speed=0.0152x    frame=  246 fps=1.2 q=53.0 size=       1kB time=00:00:03.12 bitrate=   1.9kbits/s speed=0.0151x    frame=  247 fps=1.2 q=53.0 size=       1kB time=00:00:03.14 bitrate=   1.9kbits/s speed=0.0151x    frame=  248 fps=1.2 q=53.0 size=       1kB time=00:00:03.16 bitrate=   1.9kbits/s speed=0.0151x    frame=  251 fps=1.2 q=53.0 size=       1kB time=00:00:03.22 bitrate=   1.8kbits/s speed=0.0151x    frame=  252 fps=1.2 q=53.0 size=       1kB time=00:00:03.24 bitrate=   1.8kbits/s speed=0.0151x    frame=  253 fps=1.2 q=53.0 size=       1kB time=00:00:03.26 bitrate=   1.8kbits/s speed=0.0151x    frame=  255 fps=1.2 q=53.0 size=       1kB time=00:00:03.30 bitrate=   1.8kbits/s speed=0.0152x    frame=  257 fps=1.2 q=53.0 size=       1kB time=00:00:03.34 bitrate=   1.8kbits/s speed=0.0153x    frame=  258 fps=1.2 q=53.0 size=       1kB time=00:00:03.36 bitrate=   1.8kbits/s speed=0.0152x    frame=  259 fps=1.2 q=53.0 size=       1kB time=00:00:03.38 bitrate=   1.7kbits/s speed=0.0152x    frame=  260 fps=1.2 q=53.0 size=       1kB time=00:00:03.40 bitrate=   1.7kbits/s speed=0.0152x    frame=  261 fps=1.2 q=53.0 size=       1kB time=00:00:03.42 bitrate=   1.7kbits/s speed=0.0152x    frame=  264 fps=1.2 q=53.0 size=       1kB time=00:00:03.48 bitrate=   1.7kbits/s speed=0.0154x    frame=  265 fps=1.2 q=53.0 size=       1kB time=00:00:03.50 bitrate=   1.7kbits/s speed=0.0153x    frame=  266 fps=1.2 q=53.0 size=       1kB time=00:00:03.52 bitrate=   1.7kbits/s speed=0.0153x    frame=  267 fps=1.2 q=53.0 size=       1kB time=00:00:03.54 bitrate=   1.7kbits/s speed=0.0153x    frame=  270 fps=1.1 q=53.0 size=       1kB time=00:00:03.60 bitrate=   1.6kbits/s speed=0.0153x    frame=  271 fps=1.1 q=53.0 size=       1kB time=00:00:03.62 bitrate=   1.6kbits/s speed=0.0152x    frame=  272 fps=1.1 q=53.0 size=       1kB time=00:00:03.64 bitrate=   1.6kbits/s speed=0.0153x    frame=  274 fps=1.1 q=53.0 size=       1kB time=00:00:03.68 bitrate=   1.6kbits/s speed=0.0154x    frame=  276 fps=1.1 q=53.0 size=       1kB time=00:00:03.72 bitrate=   1.6kbits/s speed=0.0153x    frame=  277 fps=1.1 q=53.0 size=       1kB time=00:00:03.74 bitrate=   1.6kbits/s speed=0.0153x    frame=  279 fps=1.1 q=53.0 size=       1kB time=00:00:03.78 bitrate=   1.6kbits/s speed=0.0153x    frame=  281 fps=1.1 q=53.0 size=       1kB time=00:00:03.82 bitrate=   1.5kbits/s speed=0.0155x    frame=  282 fps=1.1 q=53.0 size=       1kB time=00:00:03.84 bitrate=   1.5kbits/s speed=0.0153x    frame=  283 fps=1.1 q=53.0 size=       1kB time=00:00:03.86 bitrate=   1.5kbits/s speed=0.0153x    frame=  284 fps=1.1 q=53.0 size=       1kB time=00:00:03.88 bitrate=   1.5kbits/s speed=0.0153x    frame=  285 fps=1.1 q=53.0 size=       1kB time=00:00:03.90 bitrate=   1.5kbits/s speed=0.0153x    frame=  286 fps=1.1 q=53.0 size=       1kB time=00:00:03.92 bitrate=   1.5kbits/s speed=0.0153x    frame=  288 fps=1.1 q=53.0 size=       1kB time=00:00:03.96 bitrate=   1.5kbits/s speed=0.0155x    frame=  289 fps=1.1 q=53.0 size=       1kB time=00:00:03.98 bitrate=   1.5kbits/s speed=0.0154x    frame=  290 fps=1.1 q=53.0 size=       1kB time=00:00:04.00 bitrate=   1.5kbits/s speed=0.0153x    frame=  291 fps=1.1 q=53.0 size=       1kB time=00:00:04.02 bitrate=   1.5kbits/s speed=0.0153x    frame=  292 fps=1.1 q=53.0 size=       1kB time=00:00:04.04 bitrate=   1.5kbits/s speed=0.0154x    frame=  294 fps=1.1 q=53.0 size=       1kB time=00:00:04.08 bitrate=   1.4kbits/s speed=0.0155x    frame=  295 fps=1.1 q=53.0 size=       1kB time=00:00:04.10 bitrate=   1.4kbits/s speed=0.0155x    frame=  296 fps=1.1 q=53.0 size=       1kB time=00:00:04.12 bitrate=   1.4kbits/s speed=0.0155x    frame=  297 fps=1.1 q=53.0 size=       1kB time=00:00:04.14 bitrate=   1.4kbits/s speed=0.0154x    frame=  298 fps=1.1 q=53.0 size=       1kB time=00:00:04.16 bitrate=   1.4kbits/s speed=0.0154x    frame=  299 fps=1.1 q=53.0 size=       1kB time=00:00:04.18 bitrate=   1.4kbits/s speed=0.0154x    frame=  302 fps=1.1 q=53.0 size=       1kB time=00:00:04.24 bitrate=   1.4kbits/s speed=0.0155x    frame=  303 fps=1.1 q=53.0 size=       1kB time=00:00:04.26 bitrate=   1.4kbits/s speed=0.0154x    frame=  304 fps=1.1 q=53.0 size=       1kB time=00:00:04.28 bitrate=   1.4kbits/s speed=0.0154x    frame=  305 fps=1.1 q=53.0 size=       1kB time=00:00:04.30 bitrate=   1.4kbits/s speed=0.0154x    frame=  307 fps=1.1 q=53.0 size=       1kB time=00:00:04.34 bitrate=   1.4kbits/s speed=0.0154x    frame=  308 fps=1.1 q=53.0 size=       1kB time=00:00:04.36 bitrate=   1.4kbits/s speed=0.0154x    frame=  309 fps=1.1 q=53.0 size=       1kB time=00:00:04.38 bitrate=   1.3kbits/s speed=0.0154x    frame=  311 fps=1.1 q=53.0 size=       1kB time=00:00:04.42 bitrate=   1.3kbits/s speed=0.0154x    frame=  313 fps=1.1 q=53.0 size=       1kB time=00:00:04.46 bitrate=   1.3kbits/s speed=0.0154x    frame=  314 fps=1.1 q=53.0 size=       1kB time=00:00:04.48 bitrate=   1.3kbits/s speed=0.0154x    frame=  316 fps=1.1 q=53.0 size=       1kB time=00:00:04.52 bitrate=   1.3kbits/s speed=0.0155x    frame=  317 fps=1.1 q=53.0 size=       1kB time=00:00:04.54 bitrate=   1.3kbits/s speed=0.0155x    frame=  319 fps=1.1 q=53.0 size=       1kB time=00:00:04.58 bitrate=   1.3kbits/s speed=0.0153x    frame=  320 fps=1.1 q=53.0 size=       1kB time=00:00:04.60 bitrate=   1.3kbits/s speed=0.0154x    frame=  321 fps=1.1 q=53.0 size=       1kB time=00:00:04.62 bitrate=   1.3kbits/s speed=0.0154x    frame=  325 fps=1.1 q=53.0 size=       1kB time=00:00:04.70 bitrate=   1.3kbits/s speed=0.0155x    frame=  326 fps=1.1 q=53.0 size=       1kB time=00:00:04.72 bitrate=   1.2kbits/s speed=0.0154x    frame=  327 fps=1.1 q=53.0 size=       1kB time=00:00:04.74 bitrate=   1.2kbits/s speed=0.0155x    frame=  329 fps=1.1 q=53.0 size=       1kB time=00:00:04.78 bitrate=   1.2kbits/s speed=0.0155x    frame=  330 fps=1.1 q=53.0 size=       1kB time=00:00:04.80 bitrate=   1.2kbits/s speed=0.0155x    frame=  331 fps=1.1 q=53.0 size=       1kB time=00:00:04.82 bitrate=   1.2kbits/s speed=0.0155x    frame=  332 fps=1.1 q=50.0 size=       1kB time=00:00:04.84 bitrate=   1.2kbits/s speed=0.0155x    frame=  333 fps=1.1 q=54.0 size=       1kB time=00:00:04.86 bitrate=   1.2kbits/s speed=0.0155x    frame=  335 fps=1.1 q=54.0 size=       1kB time=00:00:04.90 bitrate=   1.2kbits/s speed=0.0155x    frame=  336 fps=1.1 q=54.0 size=       1kB time=00:00:04.92 bitrate=   1.2kbits/s speed=0.0155x    frame=  342 fps=1.1 q=54.0 size=     903kB time=00:00:05.04 bitrate=1467.4kbits/s speed=0.0158x    frame=  348 fps=1.1 q=54.0 size=     903kB time=00:00:05.16 bitrate=1433.3kbits/s speed=0.016x    frame=  351 fps=1.1 q=54.0 size=     903kB time=00:00:05.22 bitrate=1416.8kbits/s speed=0.0162x    frame=  354 fps=1.1 q=54.0 size=     903kB time=00:00:05.28 bitrate=1400.7kbits/s speed=0.0162x    frame=  359 fps=1.1 q=54.0 size=     903kB time=00:00:05.38 bitrate=1374.7kbits/s speed=0.0163x    frame=  360 fps=1.1 q=54.0 size=     903kB time=00:00:05.40 bitrate=1369.6kbits/s speed=0.0163x    frame=  361 fps=1.1 q=54.0 size=     903kB time=00:00:05.42 bitrate=1364.5kbits/s speed=0.0164x    frame=  365 fps=1.1 q=54.0 size=     903kB time=00:00:05.50 bitrate=1344.7kbits/s speed=0.0164x    frame=  366 fps=1.1 q=54.0 size=     903kB time=00:00:05.52 bitrate=1339.8kbits/s speed=0.0165x    frame=  368 fps=1.1 q=54.0 size=     903kB time=00:00:05.56 bitrate=1330.2kbits/s speed=0.0165x    frame=  369 fps=1.1 q=54.0 size=     903kB time=00:00:05.58 bitrate=1325.4kbits/s speed=0.0164x    frame=  374 fps=1.1 q=54.0 size=     903kB time=00:00:05.68 bitrate=1302.1kbits/s speed=0.0165x    frame=  375 fps=1.1 q=54.0 size=     903kB time=00:00:05.70 bitrate=1297.5kbits/s speed=0.0165x    frame=  376 fps=1.1 q=54.0 size=     903kB time=00:00:05.72 bitrate=1293.0kbits/s speed=0.0165x    frame=  380 fps=1.1 q=54.0 size=     903kB time=00:00:05.80 bitrate=1275.1kbits/s speed=0.0165x    frame=  381 fps=1.1 q=54.0 size=     903kB time=00:00:05.82 bitrate=1270.8kbits/s speed=0.0165x    frame=  384 fps=1.1 q=54.0 size=     903kB time=00:00:05.88 bitrate=1257.8kbits/s speed=0.0166x    frame=  389 fps=1.1 q=54.0 size=     903kB time=00:00:05.98 bitrate=1236.8kbits/s speed=0.0166x    frame=  390 fps=1.1 q=54.0 size=     903kB time=00:00:06.00 bitrate=1232.6kbits/s speed=0.0166x    frame=  391 fps=1.1 q=54.0 size=     903kB time=00:00:06.02 bitrate=1228.5kbits/s speed=0.0166x    frame=  395 fps=1.1 q=54.0 size=     903kB time=00:00:06.10 bitrate=1212.4kbits/s speed=0.0166x    frame=  396 fps=1.1 q=54.0 size=     903kB time=00:00:06.12 bitrate=1208.5kbits/s speed=0.0166x    frame=  398 fps=1.1 q=54.0 size=     903kB time=00:00:06.16 bitrate=1200.6kbits/s speed=0.0167x    frame=  401 fps=1.1 q=54.0 size=     903kB time=00:00:06.22 bitrate=1189.1kbits/s speed=0.0167x    frame=  403 fps=1.1 q=54.0 size=     903kB time=00:00:06.26 bitrate=1181.5kbits/s speed=0.0167x    frame=  404 fps=1.1 q=54.0 size=     903kB time=00:00:06.28 bitrate=1177.7kbits/s speed=0.0167x    frame=  405 fps=1.1 q=54.0 size=     903kB time=00:00:06.30 bitrate=1174.0kbits/s speed=0.0167x    frame=  407 fps=1.1 q=54.0 size=     903kB time=00:00:06.34 bitrate=1166.6kbits/s speed=0.0167x    frame=  408 fps=1.1 q=54.0 size=     903kB time=00:00:06.36 bitrate=1162.9kbits/s speed=0.0167x    frame=  409 fps=1.1 q=54.0 size=     903kB time=00:00:06.38 bitrate=1159.2kbits/s speed=0.0167x    frame=  410 fps=1.1 q=54.0 size=     903kB time=00:00:06.40 bitrate=1155.6kbits/s speed=0.0167x    frame=  411 fps=1.1 q=54.0 size=     903kB time=00:00:06.42 bitrate=1152.0kbits/s speed=0.0167x    frame=  413 fps=1.1 q=54.0 size=     903kB time=00:00:06.46 bitrate=1144.9kbits/s speed=0.0167x    frame=  415 fps=1.1 q=54.0 size=     903kB time=00:00:06.50 bitrate=1137.8kbits/s speed=0.0167x    frame=  416 fps=1.1 q=54.0 size=     903kB time=00:00:06.52 bitrate=1134.3kbits/s speed=0.0166x    frame=  417 fps=1.1 q=54.0 size=     903kB time=00:00:06.54 bitrate=1130.9kbits/s speed=0.0166x    frame=  418 fps=1.1 q=54.0 size=     903kB time=00:00:06.56 bitrate=1127.4kbits/s speed=0.0166x    frame=  419 fps=1.1 q=54.0 size=     903kB time=00:00:06.58 bitrate=1124.0kbits/s speed=0.0167x    frame=  420 fps=1.1 q=54.0 size=     903kB time=00:00:06.60 bitrate=1120.6kbits/s speed=0.0167x    frame=  421 fps=1.1 q=54.0 size=     903kB time=00:00:06.62 bitrate=1117.2kbits/s speed=0.0166x    frame=  422 fps=1.1 q=54.0 size=     903kB time=00:00:06.64 bitrate=1113.9kbits/s speed=0.0166x    frame=  423 fps=1.1 q=54.0 size=     903kB time=00:00:06.66 bitrate=1110.5kbits/s speed=0.0166x    frame=  424 fps=1.1 q=54.0 size=     903kB time=00:00:06.68 bitrate=1107.2kbits/s speed=0.0166x    frame=  425 fps=1.1 q=54.0 size=     903kB time=00:00:06.70 bitrate=1103.9kbits/s speed=0.0166x    frame=  426 fps=1.1 q=54.0 size=     903kB time=00:00:06.72 bitrate=1100.6kbits/s speed=0.0166x    frame=  427 fps=1.0 q=54.0 size=     903kB time=00:00:06.74 bitrate=1097.3kbits/s speed=0.0165x    frame=  428 fps=1.0 q=54.0 size=     903kB time=00:00:06.76 bitrate=1094.1kbits/s speed=0.0165x    frame=  429 fps=1.0 q=54.0 size=     903kB time=00:00:06.78 bitrate=1090.9kbits/s speed=0.0165x    frame=  432 fps=1.0 q=54.0 size=     903kB time=00:00:06.84 bitrate=1081.3kbits/s speed=0.0166x    frame=  433 fps=1.0 q=54.0 size=     903kB time=00:00:06.86 bitrate=1078.1kbits/s speed=0.0165x    frame=  434 fps=1.0 q=54.0 size=     903kB time=00:00:06.88 bitrate=1075.0kbits/s speed=0.0165x    frame=  435 fps=1.0 q=54.0 size=     903kB time=00:00:06.90 bitrate=1071.9kbits/s speed=0.0165x    frame=  438 fps=1.0 q=54.0 size=     903kB time=00:00:06.96 bitrate=1062.6kbits/s speed=0.0165x    frame=  439 fps=1.0 q=54.0 size=     903kB time=00:00:06.98 bitrate=1059.6kbits/s speed=0.0164x    frame=  440 fps=1.0 q=54.0 size=     903kB time=00:00:07.00 bitrate=1056.6kbits/s speed=0.0164x    frame=  444 fps=1.0 q=54.0 size=     903kB time=00:00:07.08 bitrate=1044.6kbits/s speed=0.0165x    frame=  445 fps=1.0 q=54.0 size=     903kB time=00:00:07.10 bitrate=1041.7kbits/s speed=0.0165x    frame=  446 fps=1.0 q=54.0 size=     903kB time=00:00:07.12 bitrate=1038.8kbits/s speed=0.0165x    frame=  448 fps=1.0 q=54.0 size=     903kB time=00:00:07.16 bitrate=1033.0kbits/s speed=0.0165x    frame=  449 fps=1.0 q=54.0 size=     903kB time=00:00:07.18 bitrate=1030.1kbits/s speed=0.0165x    frame=  450 fps=1.0 q=54.0 size=     903kB time=00:00:07.20 bitrate=1027.2kbits/s speed=0.0165x    frame=  451 fps=1.0 q=54.0 size=     903kB time=00:00:07.22 bitrate=1024.4kbits/s speed=0.0164x    frame=  452 fps=1.0 q=54.0 size=     903kB time=00:00:07.24 bitrate=1021.6kbits/s speed=0.0164x    frame=  454 fps=1.0 q=54.0 size=     903kB time=00:00:07.28 bitrate=1015.9kbits/s speed=0.0165x    frame=  455 fps=1.0 q=54.0 size=     903kB time=00:00:07.30 bitrate=1013.2kbits/s speed=0.0164x    frame=  457 fps=1.0 q=54.0 size=     903kB time=00:00:07.34 bitrate=1007.6kbits/s speed=0.0165x    frame=  458 fps=1.0 q=54.0 size=     903kB time=00:00:07.36 bitrate=1004.9kbits/s speed=0.0164x    frame=  459 fps=1.0 q=54.0 size=     903kB time=00:00:07.38 bitrate=1002.2kbits/s speed=0.0164x    frame=  460 fps=1.0 q=54.0 size=     903kB time=00:00:07.40 bitrate= 999.5kbits/s speed=0.0164x    frame=  463 fps=1.0 q=54.0 size=     903kB time=00:00:07.46 bitrate= 991.4kbits/s speed=0.0165x    frame=  464 fps=1.0 q=54.0 size=     903kB time=00:00:07.48 bitrate= 988.8kbits/s speed=0.0164x    frame=  465 fps=1.0 q=54.0 size=     903kB time=00:00:07.50 bitrate= 986.1kbits/s speed=0.0164x    frame=  468 fps=1.0 q=54.0 size=     903kB time=00:00:07.56 bitrate= 978.3kbits/s speed=0.0164x    frame=  469 fps=1.0 q=54.0 size=     903kB time=00:00:07.58 bitrate= 975.7kbits/s speed=0.0164x    frame=  470 fps=1.0 q=54.0 size=     903kB time=00:00:07.60 bitrate= 973.2kbits/s speed=0.0164x    frame=  471 fps=1.0 q=54.0 size=     903kB time=00:00:07.62 bitrate= 970.6kbits/s speed=0.0164x    frame=  474 fps=1.0 q=54.0 size=     903kB time=00:00:07.68 bitrate= 963.0kbits/s speed=0.0164x    frame=  475 fps=1.0 q=54.0 size=     903kB time=00:00:07.70 bitrate= 960.5kbits/s speed=0.0164x    frame=  476 fps=1.0 q=54.0 size=     903kB time=00:00:07.72 bitrate= 958.0kbits/s speed=0.0164x    frame=  477 fps=1.0 q=54.0 size=     903kB time=00:00:07.74 bitrate= 955.6kbits/s speed=0.0164x    frame=  480 fps=1.0 q=54.0 size=     903kB time=00:00:07.80 bitrate= 948.2kbits/s speed=0.0163x    frame=  481 fps=1.0 q=54.0 size=     903kB time=00:00:07.82 bitrate= 945.8kbits/s speed=0.0163x    frame=  482 fps=1.0 q=54.0 size=     903kB time=00:00:07.84 bitrate= 943.4kbits/s speed=0.0163x    frame=  483 fps=1.0 q=54.0 size=     903kB time=00:00:07.86 bitrate= 941.0kbits/s speed=0.0163x    frame=  486 fps=1.0 q=54.0 size=     903kB time=00:00:07.92 bitrate= 933.9kbits/s speed=0.0163x    frame=  487 fps=1.0 q=54.0 size=     903kB time=00:00:07.94 bitrate= 931.5kbits/s speed=0.0163x    frame=  488 fps=1.0 q=54.0 size=     903kB time=00:00:07.96 bitrate= 929.2kbits/s speed=0.0163x    frame=  489 fps=1.0 q=54.0 size=     903kB time=00:00:07.98 bitrate= 926.8kbits/s speed=0.0163x    frame=  492 fps=1.0 q=54.0 size=     903kB time=00:00:08.04 bitrate= 919.9kbits/s speed=0.0163x    frame=  494 fps=1.0 q=54.0 size=     903kB time=00:00:08.08 bitrate= 915.4kbits/s speed=0.0163x    frame=  495 fps=1.0 q=54.0 size=     903kB time=00:00:08.10 bitrate= 913.1kbits/s speed=0.0163x    frame=  496 fps=1.0 q=54.0 size=     903kB time=00:00:08.12 bitrate= 910.9kbits/s speed=0.0163x    frame=  497 fps=1.0 q=54.0 size=     903kB time=00:00:08.14 bitrate= 908.6kbits/s speed=0.0163x    frame=  500 fps=1.0 q=54.0 size=     903kB time=00:00:08.20 bitrate= 902.0kbits/s speed=0.0164x    frame=  500 fps=1.0 q=54.0 size=     903kB time=00:00:08.20 bitrate= 902.0kbits/s speed=0.0162x    frame=  500 fps=0.8 q=-1.0 Lsize=    1943kB time=00:00:09.94 bitrate=1600.8kbits/s speed=0.0163x    
video:1938kB audio:0kB subtitle:0kB other streams:0kB global headers:0kB muxing overhead: 0.219974%
bench: utime=2299.156s
bench: maxrss=6484252kB
[libx264 @ 0x3620120] frame I:3     Avg QP:48.06  size: 39242
[libx264 @ 0x3620120] frame P:45    Avg QP:50.72  size:  9736
[libx264 @ 0x3620120] frame B:452   Avg QP:50.92  size:  3160
[libx264 @ 0x3620120] consecutive B-frames:  0.6%  0.0%  0.0%  0.0%  0.0%  0.0%  1.4%  3.2%  7.2% 30.0% 19.8%  9.6%  5.2% 14.0%  9.0%  0.0%  0.0%
[libx264 @ 0x3620120] mb I  I16..4: 24.3% 63.1% 12.7%
[libx264 @ 0x3620120] mb P  I16..4:  0.5%  0.5%  0.1%  P16..4: 11.0%  8.5%  0.8%  0.0%  0.0%    skip:78.5%
[libx264 @ 0x3620120] mb B  I16..4:  0.0%  0.0%  0.0%  B16..8: 15.7%  0.2%  0.0%  direct: 0.0%  skip:84.2%  L0:32.9% L1:67.1% BI: 0.0%
[libx264 @ 0x3620120] final ratefactor: 46.51
[libx264 @ 0x3620120] 8x8 transform intra:60.2% inter:94.0%
[libx264 @ 0x3620120] direct mvs  spatial:98.7% temporal:1.3%
[libx264 @ 0x3620120] coded y,uvDC,uvAC intra: 8.5% 13.6% 0.4% inter: 0.0% 0.3% 0.0%
[libx264 @ 0x3620120] i16 v,h,dc,p: 20% 41%  1% 39%
[libx264 @ 0x3620120] i8 v,h,dc,ddl,ddr,vr,hd,vl,hu: 14%  2% 60%  3%  6%  3%  5%  2%  5%
[libx264 @ 0x3620120] i4 v,h,dc,ddl,ddr,vr,hd,vl,hu: 21%  6% 66%  2%  2%  1%  1%  0%  1%
[libx264 @ 0x3620120] i8c dc,h,v,p: 28% 63%  5%  5%
[libx264 @ 0x3620120] Weighted P-Frames: Y:4.4% UV:2.2%
[libx264 @ 0x3620120] ref P L0: 62.1%  0.1% 18.0%  5.1%  3.3%  3.3%  2.6%  0.8%  0.7%  0.8%  0.6%  0.7%  0.6%  0.6%  0.6%  0.3%
[libx264 @ 0x3620120] ref B L0: 93.8%  3.2%  1.4%  0.4%  0.4%  0.2%  0.2%  0.1%  0.1%  0.1%  0.0%  0.0%  0.0%  0.0%  0.0%
[libx264 @ 0x3620120] ref B L1: 96.6%  3.4%
[libx264 @ 0x3620120] kb/s:1587.27
